<svg width="16" height="16" viewBox="0 0 16 16" fill="none" xmlns="http://www.w3.org/2000/svg">
<g id="location 1">
<path id="Vector" opacity="0.4" d="M13.7474 5.63329C13.0474 2.55329 10.3608 1.16663 8.00075 1.16663C8.00075 1.16663 8.00076 1.16663 7.99409 1.16663C5.64074 1.16663 2.9474 2.54663 2.2474 5.62663C1.4674 9.06663 3.57407 11.98 5.48074 13.8133C6.1874 14.4933 7.09409 14.8333 8.00075 14.8333C8.90742 14.8333 9.81409 14.4933 10.5141 13.8133C12.4208 11.98 14.5274 9.07329 13.7474 5.63329Z" fill="white"/>
<path id="Vector_2" d="M8.00109 8.97346C9.16089 8.97346 10.1011 8.03326 10.1011 6.87346C10.1011 5.71364 9.16089 4.77344 8.00109 4.77344C6.84129 4.77344 5.90106 5.71364 5.90106 6.87346C5.90106 8.03326 6.84129 8.97346 8.00109 8.97346Z" fill="white"/>
</g>
</svg>
