<svg width="56" height="56" viewBox="0 0 56 56" fill="none" xmlns="http://www.w3.org/2000/svg">
<g id="sun-fog.6 1">
<path id="Vector" d="M43.1216 28.5833C43.7749 28.5833 44.3349 28.0233 44.2883 27.37C43.6583 18.9233 36.6116 12.25 28.0016 12.25C19.3916 12.25 12.3449 18.9 11.7149 27.37C11.6683 28.0233 12.2283 28.5833 12.8816 28.5833H43.1216Z" fill="white"/>
<path id="Vector_2" d="M51.3333 30.3334H51.1466C49.8633 30.3334 48.8133 29.2834 48.8133 28C48.8133 26.7167 49.8633 25.6667 51.1466 25.6667C52.43 25.6667 53.5733 26.7167 53.5733 28C53.5733 29.2834 52.6166 30.3334 51.3333 30.3334ZM4.85336 30.3334H4.66665C3.38331 30.3334 2.33331 29.2834 2.33331 28C2.33331 26.7167 3.38331 25.6667 4.66665 25.6667C5.94998 25.6667 7.09327 26.7167 7.09327 28C7.09327 29.2834 6.13669 30.3334 4.85336 30.3334ZM44.3566 13.9767C43.75 13.9767 43.1666 13.7434 42.7 13.3C41.79 12.39 41.79 10.92 42.7 10.01L43.0033 9.70671C43.9133 8.79671 45.3833 8.79671 46.2933 9.70671C47.2033 10.6167 47.2033 12.0867 46.2933 12.9967L45.99 13.3C45.5466 13.7434 44.9633 13.9767 44.3566 13.9767ZM11.6433 13.9767C11.0366 13.9767 10.4534 13.7434 9.98672 13.3L9.68336 12.9967C8.77336 12.0867 8.77336 10.6167 9.68336 9.70671C10.5934 8.79671 12.0633 8.79671 12.9733 9.70671L13.2766 10.01C14.1866 10.92 14.1866 12.39 13.2766 13.3C12.8333 13.7434 12.2266 13.9767 11.6433 13.9767ZM28 7.09335C26.7166 7.09335 25.6666 6.13671 25.6666 4.85337V4.66671C25.6666 3.38337 26.7166 2.33337 28 2.33337C29.2833 2.33337 30.3333 3.38337 30.3333 4.66671C30.3333 5.95004 29.2833 7.09335 28 7.09335Z" fill="white"/>
<path id="Vector_3" opacity="0.4" d="M46.6666 36.75H9.33331C8.37665 36.75 7.58331 35.9567 7.58331 35C7.58331 34.0433 8.37665 33.25 9.33331 33.25H46.6666C47.6233 33.25 48.4166 34.0433 48.4166 35C48.4166 35.9567 47.6233 36.75 46.6666 36.75Z" fill="white"/>
<path id="Vector_4" opacity="0.4" d="M42 43.75H14C13.0433 43.75 12.25 42.9567 12.25 42C12.25 41.0433 13.0433 40.25 14 40.25H42C42.9567 40.25 43.75 41.0433 43.75 42C43.75 42.9567 42.9567 43.75 42 43.75Z" fill="white"/>
<path id="Vector_5" opacity="0.4" d="M35 50.75H21C20.0433 50.75 19.25 49.9567 19.25 49C19.25 48.0433 20.0433 47.25 21 47.25H35C35.9567 47.25 36.75 48.0433 36.75 49C36.75 49.9567 35.9567 50.75 35 50.75Z" fill="white"/>
</g>
</svg>
