<svg width="52" height="52" viewBox="0 0 52 52" fill="none" xmlns="http://www.w3.org/2000/svg">
<path opacity="0.4" d="M26 42.3334C35.0207 42.3334 42.3334 35.0207 42.3334 26C42.3334 16.9794 35.0207 9.66669 26 9.66669C16.9794 9.66669 9.66669 16.9794 9.66669 26C9.66669 35.0207 16.9794 42.3334 26 42.3334Z" fill="white"/>
<path d="M26 51.5733C24.7166 51.5733 23.6666 50.6166 23.6666 49.3333V49.1466C23.6666 47.8633 24.7166 46.8133 26 46.8133C27.2833 46.8133 28.3333 47.8633 28.3333 49.1466C28.3333 50.43 27.2833 51.5733 26 51.5733ZM42.66 44.9933C42.0533 44.9933 41.47 44.76 41.0033 44.3166L40.7 44.0133C39.79 43.1033 39.79 41.6333 40.7 40.7233C41.61 39.8133 43.08 39.8133 43.99 40.7233L44.2933 41.0266C45.2033 41.9366 45.2033 43.4066 44.2933 44.3166C43.85 44.76 43.2666 44.9933 42.66 44.9933ZM9.33998 44.9933C8.73331 44.9933 8.14998 44.76 7.68331 44.3166C6.77331 43.4066 6.77331 41.9366 7.68331 41.0266L7.98665 40.7233C8.89665 39.8133 10.3666 39.8133 11.2766 40.7233C12.1866 41.6333 12.1866 43.1033 11.2766 44.0133L10.9733 44.3166C10.53 44.76 9.92331 44.9933 9.33998 44.9933ZM49.3333 28.3333H49.1466C47.8633 28.3333 46.8133 27.2833 46.8133 26C46.8133 24.7166 47.8633 23.6666 49.1466 23.6666C50.43 23.6666 51.5733 24.7166 51.5733 26C51.5733 27.2833 50.6166 28.3333 49.3333 28.3333ZM2.85331 28.3333H2.66665C1.38331 28.3333 0.333313 27.2833 0.333313 26C0.333313 24.7166 1.38331 23.6666 2.66665 23.6666C3.94998 23.6666 5.09331 24.7166 5.09331 26C5.09331 27.2833 4.13665 28.3333 2.85331 28.3333ZM42.3566 11.9766C41.75 11.9766 41.1666 11.7433 40.7 11.3C39.79 10.39 39.79 8.91998 40.7 8.00998L41.0033 7.70665C41.9133 6.79665 43.3833 6.79665 44.2933 7.70665C45.2033 8.61665 45.2033 10.0866 44.2933 10.9966L43.99 11.3C43.5466 11.7433 42.9633 11.9766 42.3566 11.9766ZM9.64331 11.9766C9.03665 11.9766 8.45331 11.7433 7.98665 11.3L7.68331 10.9733C6.77331 10.0633 6.77331 8.59331 7.68331 7.68331C8.59331 6.77331 10.0633 6.77331 10.9733 7.68331L11.2766 7.98665C12.1866 8.89665 12.1866 10.3666 11.2766 11.2766C10.8333 11.7433 10.2266 11.9766 9.64331 11.9766ZM26 5.09331C24.7166 5.09331 23.6666 4.13665 23.6666 2.85331V2.66665C23.6666 1.38331 24.7166 0.333313 26 0.333313C27.2833 0.333313 28.3333 1.38331 28.3333 2.66665C28.3333 3.94998 27.2833 5.09331 26 5.09331Z" fill="white"/>
</svg>
